<svg width="48" height="48" viewBox="0 0 48 48" fill="none" xmlns="http://www.w3.org/2000/svg">
<rect width="48" height="48" fill="url(#paint0_linear_1_27)"/>
<path d="M3.47902 22V13.6H4.42702V21.124H9.15502V22H3.47902ZM12.9967 16.528C12.6287 16.528 12.2927 16.572 11.9887 16.66C11.6927 16.74 11.4007 16.848 11.1127 16.984L10.8367 16.228C11.1807 16.068 11.5287 15.944 11.8807 15.856C12.2327 15.76 12.6367 15.712 13.0927 15.712C13.9407 15.712 14.5927 15.924 15.0487 16.348C15.5047 16.764 15.7327 17.384 15.7327 18.208V22H14.8447V21.064C14.6287 21.344 14.3367 21.592 13.9687 21.808C13.6087 22.024 13.1527 22.132 12.6007 22.132C12.3127 22.132 12.0287 22.092 11.7487 22.012C11.4767 21.932 11.2287 21.812 11.0047 21.652C10.7887 21.484 10.6127 21.28 10.4767 21.04C10.3487 20.8 10.2847 20.516 10.2847 20.188C10.2847 19.86 10.3487 19.572 10.4767 19.324C10.6047 19.068 10.7847 18.856 11.0167 18.688C11.2567 18.52 11.5367 18.392 11.8567 18.304C12.1847 18.216 12.5447 18.172 12.9367 18.172C13.3367 18.172 13.6847 18.196 13.9807 18.244C14.2767 18.292 14.5647 18.356 14.8447 18.436V18.22C14.8447 17.66 14.6807 17.24 14.3527 16.96C14.0327 16.672 13.5807 16.528 12.9967 16.528ZM13.0327 18.856C12.4487 18.856 12.0007 18.972 11.6887 19.204C11.3767 19.436 11.2207 19.752 11.2207 20.152C11.2207 20.352 11.2607 20.528 11.3407 20.68C11.4287 20.832 11.5447 20.964 11.6887 21.076C11.8327 21.18 11.9967 21.26 12.1807 21.316C12.3727 21.372 12.5727 21.4 12.7807 21.4C13.0687 21.4 13.3367 21.36 13.5847 21.28C13.8407 21.192 14.0607 21.076 14.2447 20.932C14.4367 20.78 14.5847 20.604 14.6887 20.404C14.8007 20.196 14.8567 19.968 14.8567 19.72V19.12C14.6247 19.056 14.3567 18.996 14.0527 18.94C13.7567 18.884 13.4167 18.856 13.0327 18.856ZM22.1059 19.348V15.796H23.0179V22H22.1059V20.92C21.8979 21.256 21.6259 21.544 21.2899 21.784C20.9539 22.016 20.5179 22.132 19.9819 22.132C19.6059 22.132 19.2699 22.072 18.9739 21.952C18.6859 21.832 18.4379 21.664 18.2299 21.448C18.0299 21.224 17.8739 20.96 17.7619 20.656C17.6579 20.352 17.6059 20.016 17.6059 19.648V15.796H18.5299V19.42C18.5299 19.996 18.6779 20.452 18.9739 20.788C19.2699 21.124 19.6939 21.292 20.2459 21.292C20.5099 21.292 20.7539 21.248 20.9779 21.16C21.2099 21.064 21.4059 20.932 21.5659 20.764C21.7339 20.588 21.8659 20.38 21.9619 20.14C22.0579 19.9 22.1059 19.636 22.1059 19.348ZM26.0205 18.448V22H25.0965V15.796H26.0205V16.876C26.2285 16.54 26.5005 16.256 26.8365 16.024C27.1725 15.784 27.6085 15.664 28.1445 15.664C28.5205 15.664 28.8525 15.724 29.1405 15.844C29.4365 15.964 29.6845 16.136 29.8845 16.36C30.0925 16.576 30.2485 16.836 30.3525 17.14C30.4645 17.444 30.5205 17.78 30.5205 18.148V22H29.5965V18.376C29.5965 17.8 29.4485 17.344 29.1525 17.008C28.8565 16.672 28.4325 16.504 27.8805 16.504C27.6165 16.504 27.3685 16.552 27.1365 16.648C26.9125 16.736 26.7165 16.868 26.5485 17.044C26.3805 17.212 26.2485 17.416 26.1525 17.656C26.0645 17.896 26.0205 18.16 26.0205 18.448ZM37.819 20.944C37.507 21.296 37.151 21.584 36.751 21.808C36.359 22.032 35.871 22.144 35.287 22.144C34.831 22.144 34.407 22.06 34.015 21.892C33.631 21.716 33.295 21.484 33.007 21.196C32.727 20.9 32.507 20.556 32.347 20.164C32.187 19.772 32.107 19.356 32.107 18.916C32.107 18.476 32.187 18.06 32.347 17.668C32.507 17.268 32.727 16.92 33.007 16.624C33.295 16.328 33.631 16.096 34.015 15.928C34.407 15.752 34.831 15.664 35.287 15.664C35.583 15.664 35.851 15.692 36.091 15.748C36.331 15.804 36.551 15.884 36.751 15.988C36.951 16.084 37.135 16.2 37.303 16.336C37.471 16.472 37.627 16.616 37.771 16.768L37.159 17.416C36.911 17.16 36.639 16.94 36.343 16.756C36.055 16.572 35.699 16.48 35.275 16.48C34.963 16.48 34.671 16.544 34.399 16.672C34.127 16.792 33.891 16.964 33.691 17.188C33.491 17.404 33.335 17.66 33.223 17.956C33.111 18.244 33.055 18.556 33.055 18.892C33.055 19.228 33.111 19.544 33.223 19.84C33.343 20.136 33.503 20.396 33.703 20.62C33.911 20.836 34.151 21.008 34.423 21.136C34.703 21.256 35.007 21.316 35.335 21.316C35.735 21.316 36.087 21.228 36.391 21.052C36.703 20.876 36.983 20.656 37.231 20.392L37.819 20.944ZM40.2705 18.448V22H39.3465V13.24H40.2705V16.876C40.4785 16.54 40.7505 16.256 41.0865 16.024C41.4225 15.784 41.8585 15.664 42.3945 15.664C42.7705 15.664 43.1025 15.724 43.3905 15.844C43.6865 15.964 43.9345 16.136 44.1345 16.36C44.3425 16.576 44.4985 16.836 44.6025 17.14C44.7145 17.444 44.7705 17.78 44.7705 18.148V22H43.8465V18.376C43.8465 17.8 43.6985 17.344 43.4025 17.008C43.1065 16.672 42.6825 16.504 42.1305 16.504C41.8665 16.504 41.6185 16.552 41.3865 16.648C41.1625 16.736 40.9665 16.868 40.7985 17.044C40.6305 17.212 40.4985 17.416 40.4025 17.656C40.3145 17.896 40.2705 18.16 40.2705 18.448ZM12.5903 25.332C12.1103 25.332 11.6983 25.456 11.3543 25.704C11.0103 25.944 10.6703 26.3 10.3343 26.772L9.63825 26.268C9.83025 25.988 10.0263 25.736 10.2263 25.512C10.4263 25.288 10.6423 25.1 10.8743 24.948C11.1143 24.796 11.3783 24.68 11.6663 24.6C11.9623 24.52 12.2943 24.48 12.6623 24.48C13.0463 24.48 13.3943 24.54 13.7063 24.66C14.0263 24.78 14.3023 24.948 14.5343 25.164C14.7663 25.372 14.9463 25.624 15.0742 25.92C15.2023 26.208 15.2663 26.524 15.2663 26.868C15.2663 27.18 15.2223 27.464 15.1343 27.72C15.0543 27.976 14.9263 28.232 14.7503 28.488C14.5743 28.736 14.3543 28.996 14.0903 29.268C13.8263 29.532 13.5103 29.824 13.1423 30.144L10.8983 32.136H15.3503V33H9.48225V32.268L12.5303 29.58C12.8503 29.292 13.1223 29.032 13.3463 28.8C13.5703 28.568 13.7503 28.352 13.8863 28.152C14.0303 27.944 14.1303 27.744 14.1863 27.552C14.2503 27.352 14.2823 27.148 14.2823 26.94C14.2823 26.692 14.2343 26.472 14.1383 26.28C14.0503 26.08 13.9303 25.912 13.7783 25.776C13.6263 25.632 13.4463 25.524 13.2383 25.452C13.0303 25.372 12.8143 25.332 12.5903 25.332ZM23.9258 28.788C23.9258 29.38 23.8418 29.94 23.6738 30.468C23.5058 30.996 23.2658 31.46 22.9538 31.86C22.6498 32.252 22.2778 32.564 21.8378 32.796C21.3978 33.028 20.9098 33.144 20.3738 33.144C19.8298 33.144 19.3378 33.032 18.8978 32.808C18.4658 32.576 18.0938 32.264 17.7818 31.872C17.4778 31.472 17.2418 31.012 17.0738 30.492C16.9138 29.964 16.8338 29.404 16.8338 28.812C16.8338 28.22 16.9178 27.66 17.0858 27.132C17.2538 26.604 17.4898 26.144 17.7938 25.752C18.1058 25.352 18.4818 25.036 18.9218 24.804C19.3618 24.572 19.8538 24.456 20.3978 24.456C20.9338 24.456 21.4178 24.572 21.8498 24.804C22.2898 25.028 22.6618 25.34 22.9658 25.74C23.2778 26.132 23.5138 26.592 23.6738 27.12C23.8418 27.64 23.9258 28.196 23.9258 28.788ZM22.9418 28.812C22.9418 28.348 22.8818 27.908 22.7618 27.492C22.6418 27.068 22.4698 26.696 22.2458 26.376C22.0218 26.056 21.7498 25.8 21.4298 25.608C21.1178 25.416 20.7658 25.32 20.3738 25.32C19.9818 25.32 19.6258 25.416 19.3058 25.608C18.9938 25.792 18.7258 26.044 18.5018 26.364C18.2858 26.676 18.1178 27.044 17.9978 27.468C17.8778 27.884 17.8178 28.324 17.8178 28.788C17.8178 29.252 17.8778 29.696 17.9978 30.12C18.1178 30.544 18.2898 30.916 18.5138 31.236C18.7378 31.556 19.0098 31.812 19.3298 32.004C19.6498 32.188 20.0058 32.28 20.3978 32.28C20.7898 32.28 21.1418 32.188 21.4538 32.004C21.7738 31.812 22.0418 31.56 22.2578 31.248C22.4818 30.928 22.6498 30.56 22.7618 30.144C22.8818 29.72 22.9418 29.276 22.9418 28.812ZM28.2348 25.332C27.7548 25.332 27.3428 25.456 26.9988 25.704C26.6548 25.944 26.3148 26.3 25.9788 26.772L25.2828 26.268C25.4748 25.988 25.6708 25.736 25.8708 25.512C26.0708 25.288 26.2868 25.1 26.5188 24.948C26.7588 24.796 27.0228 24.68 27.3108 24.6C27.6068 24.52 27.9388 24.48 28.3068 24.48C28.6908 24.48 29.0388 24.54 29.3508 24.66C29.6708 24.78 29.9468 24.948 30.1788 25.164C30.4108 25.372 30.5908 25.624 30.7188 25.92C30.8468 26.208 30.9108 26.524 30.9108 26.868C30.9108 27.18 30.8668 27.464 30.7788 27.72C30.6988 27.976 30.5708 28.232 30.3948 28.488C30.2188 28.736 29.9988 28.996 29.7348 29.268C29.4708 29.532 29.1548 29.824 28.7868 30.144L26.5428 32.136H30.9948V33H25.1268V32.268L28.1748 29.58C28.4948 29.292 28.7668 29.032 28.9908 28.8C29.2148 28.568 29.3948 28.352 29.5308 28.152C29.6748 27.944 29.7748 27.744 29.8308 27.552C29.8948 27.352 29.9268 27.148 29.9268 26.94C29.9268 26.692 29.8788 26.472 29.7828 26.28C29.6948 26.08 29.5748 25.912 29.4228 25.776C29.2708 25.632 29.0908 25.524 28.8828 25.452C28.6748 25.372 28.4588 25.332 28.2348 25.332ZM36.8824 25.452H32.7784V24.6H38.1424V25.296L35.5024 28.224C35.8704 28.256 36.2224 28.324 36.5584 28.428C36.8944 28.532 37.1864 28.68 37.4344 28.872C37.6904 29.064 37.8944 29.304 38.0464 29.592C38.1984 29.88 38.2744 30.216 38.2744 30.6C38.2744 30.976 38.1984 31.32 38.0464 31.632C37.9024 31.944 37.7024 32.212 37.4464 32.436C37.1984 32.66 36.9024 32.836 36.5584 32.964C36.2224 33.084 35.8584 33.144 35.4664 33.144C34.7624 33.144 34.1504 33.008 33.6304 32.736C33.1104 32.456 32.6784 32.092 32.3344 31.644L33.0184 31.032C33.3464 31.432 33.7064 31.74 34.0984 31.956C34.4984 32.172 34.9584 32.28 35.4784 32.28C35.7344 32.28 35.9744 32.244 36.1984 32.172C36.4224 32.092 36.6144 31.98 36.7744 31.836C36.9424 31.692 37.0744 31.52 37.1704 31.32C37.2664 31.112 37.3144 30.884 37.3144 30.636C37.3144 30.108 37.0944 29.704 36.6544 29.424C36.2224 29.144 35.6584 29.004 34.9624 29.004H34.4224L34.2304 28.44L36.8824 25.452Z" fill="#DB995C"/>
<defs>
<linearGradient id="paint0_linear_1_27" x1="2" y1="2" x2="24" y2="48" gradientUnits="userSpaceOnUse">
<stop stop-color="#69B5EC"/>
<stop offset="0.640051" stop-color="#A8C9E1" stop-opacity="0.44181"/>
<stop offset="1" stop-color="#D9D9D9" stop-opacity="0"/>
</linearGradient>
</defs>
</svg>
